# xmcd
#
# Track frame offsets:
#	150
#	13787
#	28215
#	46289
#	58930
#	73777
#	93350
#	108372
#	123564
#	139755
#
# Disc length: 2111 seconds
#
# Revision: 1
# Processed by: cddbd v1.5.2PL0 Copyright (c) Steve Scherf et al.
# Submitted via: audiograbber 1.83.01
#
DISCID=90083d0a
DTITLE=Charley Rivers - I Don't Wanna Be Wanted
DYEAR=2009
DGENRE=Country
TTITLE0=Too Many Honky Tonks On My Way Home
TTITLE1=Simple Kinda Guy
TTITLE2=I Don't Wanna Be Wanted
TTITLE3=Easy To Say, Hard To Do 
TTITLE4=It Ain't The Clothes That Makes The Man
TTITLE5=Over A Barrel and Under The Gun
TTITLE6=Future Mister Me
TTITLE7=Ol' Grizzly
TTITLE8=Without You
TTITLE9=I'll Love You From A Distance
EXTD=
EXTT0=
EXTT1=
EXTT2=
EXTT3=
EXTT4=
EXTT5=
EXTT6=
EXTT7=
EXTT8=
EXTT9=
PLAYORDER=
